<mxfile host="app.diagrams.net" agent="Mozilla/5.0 (Windows NT 10.0; Win64; x64) AppleWebKit/537.36 (KHTML, like Gecko) Chrome/138.0.0.0 Safari/537.36" version="28.0.7">
  <diagram name="Page-1" id="yRRBCqd0JBk5zs2dU53u">
    <mxGraphModel dx="2276" dy="777" grid="1" gridSize="10" guides="1" tooltips="1" connect="1" arrows="1" fold="1" page="1" pageScale="1" pageWidth="850" pageHeight="1100" math="0" shadow="0">
      <root>
        <mxCell id="0" />
        <mxCell id="1" parent="0" />
        <mxCell id="tvSFFlMFryi0nulxaoqH-44" style="edgeStyle=orthogonalEdgeStyle;rounded=0;orthogonalLoop=1;jettySize=auto;html=1;exitX=1;exitY=0.5;exitDx=0;exitDy=0;entryX=0;entryY=0.5;entryDx=0;entryDy=0;" edge="1" parent="1" source="tvSFFlMFryi0nulxaoqH-2" target="tvSFFlMFryi0nulxaoqH-3">
          <mxGeometry relative="1" as="geometry" />
        </mxCell>
        <mxCell id="tvSFFlMFryi0nulxaoqH-2" value="Prepare Data" style="whiteSpace=wrap;html=1;fillColor=#dae8fc;strokeColor=#6c8ebf;" vertex="1" parent="1">
          <mxGeometry x="-210" y="300" width="120" height="60" as="geometry" />
        </mxCell>
        <mxCell id="tvSFFlMFryi0nulxaoqH-11" value="" style="edgeStyle=orthogonalEdgeStyle;rounded=0;orthogonalLoop=1;jettySize=auto;html=1;" edge="1" parent="1" source="tvSFFlMFryi0nulxaoqH-3" target="tvSFFlMFryi0nulxaoqH-10">
          <mxGeometry relative="1" as="geometry" />
        </mxCell>
        <mxCell id="tvSFFlMFryi0nulxaoqH-16" style="edgeStyle=orthogonalEdgeStyle;rounded=0;orthogonalLoop=1;jettySize=auto;html=1;exitX=1;exitY=0.5;exitDx=0;exitDy=0;entryX=0;entryY=0.5;entryDx=0;entryDy=0;" edge="1" parent="1" source="tvSFFlMFryi0nulxaoqH-3" target="tvSFFlMFryi0nulxaoqH-4">
          <mxGeometry relative="1" as="geometry" />
        </mxCell>
        <mxCell id="tvSFFlMFryi0nulxaoqH-3" value="Preprocess Storm Catalogue" style="whiteSpace=wrap;html=1;fillColor=#dae8fc;strokeColor=#6c8ebf;" vertex="1" parent="1">
          <mxGeometry x="-40" y="300" width="120" height="60" as="geometry" />
        </mxCell>
        <mxCell id="tvSFFlMFryi0nulxaoqH-18" value="" style="edgeStyle=orthogonalEdgeStyle;rounded=0;orthogonalLoop=1;jettySize=auto;html=1;" edge="1" parent="1" source="tvSFFlMFryi0nulxaoqH-4" target="tvSFFlMFryi0nulxaoqH-17">
          <mxGeometry relative="1" as="geometry" />
        </mxCell>
        <mxCell id="tvSFFlMFryi0nulxaoqH-28" style="edgeStyle=orthogonalEdgeStyle;rounded=0;orthogonalLoop=1;jettySize=auto;html=1;exitX=1;exitY=0.5;exitDx=0;exitDy=0;entryX=0;entryY=0.5;entryDx=0;entryDy=0;" edge="1" parent="1" source="tvSFFlMFryi0nulxaoqH-4" target="tvSFFlMFryi0nulxaoqH-5">
          <mxGeometry relative="1" as="geometry" />
        </mxCell>
        <mxCell id="tvSFFlMFryi0nulxaoqH-4" value="Sample Storm Events" style="whiteSpace=wrap;html=1;fillColor=#dae8fc;strokeColor=#6c8ebf;" vertex="1" parent="1">
          <mxGeometry x="120" y="300" width="120" height="60" as="geometry" />
        </mxCell>
        <mxCell id="tvSFFlMFryi0nulxaoqH-30" value="" style="edgeStyle=orthogonalEdgeStyle;rounded=0;orthogonalLoop=1;jettySize=auto;html=1;" edge="1" parent="1" source="tvSFFlMFryi0nulxaoqH-5" target="tvSFFlMFryi0nulxaoqH-29">
          <mxGeometry relative="1" as="geometry" />
        </mxCell>
        <mxCell id="tvSFFlMFryi0nulxaoqH-37" style="edgeStyle=orthogonalEdgeStyle;rounded=0;orthogonalLoop=1;jettySize=auto;html=1;exitX=1;exitY=0.5;exitDx=0;exitDy=0;entryX=0;entryY=0.5;entryDx=0;entryDy=0;" edge="1" parent="1" source="tvSFFlMFryi0nulxaoqH-5" target="tvSFFlMFryi0nulxaoqH-6">
          <mxGeometry relative="1" as="geometry" />
        </mxCell>
        <mxCell id="tvSFFlMFryi0nulxaoqH-5" value="Compute Precipitation Depths" style="whiteSpace=wrap;html=1;fillColor=#dae8fc;strokeColor=#6c8ebf;" vertex="1" parent="1">
          <mxGeometry x="280" y="300" width="120" height="60" as="geometry" />
        </mxCell>
        <mxCell id="tvSFFlMFryi0nulxaoqH-36" value="" style="edgeStyle=orthogonalEdgeStyle;rounded=0;orthogonalLoop=1;jettySize=auto;html=1;" edge="1" parent="1" source="tvSFFlMFryi0nulxaoqH-6" target="tvSFFlMFryi0nulxaoqH-35">
          <mxGeometry relative="1" as="geometry" />
        </mxCell>
        <mxCell id="tvSFFlMFryi0nulxaoqH-45" style="edgeStyle=orthogonalEdgeStyle;rounded=0;orthogonalLoop=1;jettySize=auto;html=1;exitX=1;exitY=0.5;exitDx=0;exitDy=0;" edge="1" parent="1" source="tvSFFlMFryi0nulxaoqH-6" target="tvSFFlMFryi0nulxaoqH-7">
          <mxGeometry relative="1" as="geometry" />
        </mxCell>
        <mxCell id="tvSFFlMFryi0nulxaoqH-6" value="Analyze &amp;amp; Visualize Results" style="whiteSpace=wrap;html=1;fillColor=#dae8fc;strokeColor=#6c8ebf;" vertex="1" parent="1">
          <mxGeometry x="470" y="300" width="120" height="60" as="geometry" />
        </mxCell>
        <mxCell id="tvSFFlMFryi0nulxaoqH-7" value="Export Results" style="whiteSpace=wrap;html=1;fillColor=#dae8fc;strokeColor=#6c8ebf;" vertex="1" parent="1">
          <mxGeometry x="630" y="300" width="120" height="60" as="geometry" />
        </mxCell>
        <mxCell id="tvSFFlMFryi0nulxaoqH-13" value="" style="edgeStyle=orthogonalEdgeStyle;rounded=0;orthogonalLoop=1;jettySize=auto;html=1;" edge="1" parent="1" source="tvSFFlMFryi0nulxaoqH-10" target="tvSFFlMFryi0nulxaoqH-12">
          <mxGeometry relative="1" as="geometry" />
        </mxCell>
        <mxCell id="tvSFFlMFryi0nulxaoqH-10" value="Set working directory &amp;amp; paths" style="whiteSpace=wrap;html=1;fillColor=#ffe6cc;strokeColor=#d79b00;" vertex="1" parent="1">
          <mxGeometry x="-40" y="400" width="120" height="60" as="geometry" />
        </mxCell>
        <mxCell id="tvSFFlMFryi0nulxaoqH-15" value="" style="edgeStyle=orthogonalEdgeStyle;rounded=0;orthogonalLoop=1;jettySize=auto;html=1;" edge="1" parent="1" source="tvSFFlMFryi0nulxaoqH-12" target="tvSFFlMFryi0nulxaoqH-14">
          <mxGeometry relative="1" as="geometry" />
        </mxCell>
        <mxCell id="tvSFFlMFryi0nulxaoqH-12" value="Read NetCDF storm files" style="whiteSpace=wrap;html=1;fillColor=#ffe6cc;strokeColor=#d79b00;" vertex="1" parent="1">
          <mxGeometry x="-40" y="500" width="120" height="60" as="geometry" />
        </mxCell>
        <mxCell id="tvSFFlMFryi0nulxaoqH-14" value="Create storm catalogue" style="whiteSpace=wrap;html=1;fillColor=#ffe6cc;strokeColor=#d79b00;" vertex="1" parent="1">
          <mxGeometry x="-40" y="600" width="120" height="60" as="geometry" />
        </mxCell>
        <mxCell id="tvSFFlMFryi0nulxaoqH-21" style="edgeStyle=orthogonalEdgeStyle;rounded=0;orthogonalLoop=1;jettySize=auto;html=1;exitX=0.5;exitY=1;exitDx=0;exitDy=0;entryX=0.5;entryY=0;entryDx=0;entryDy=0;" edge="1" parent="1" source="tvSFFlMFryi0nulxaoqH-17" target="tvSFFlMFryi0nulxaoqH-19">
          <mxGeometry relative="1" as="geometry" />
        </mxCell>
        <mxCell id="tvSFFlMFryi0nulxaoqH-17" value="Read storm catalogue" style="whiteSpace=wrap;html=1;fillColor=#ffe6cc;strokeColor=#d79b00;" vertex="1" parent="1">
          <mxGeometry x="120" y="400" width="120" height="60" as="geometry" />
        </mxCell>
        <mxCell id="tvSFFlMFryi0nulxaoqH-23" style="edgeStyle=orthogonalEdgeStyle;rounded=0;orthogonalLoop=1;jettySize=auto;html=1;exitX=0.5;exitY=1;exitDx=0;exitDy=0;entryX=0.5;entryY=0;entryDx=0;entryDy=0;" edge="1" parent="1" source="tvSFFlMFryi0nulxaoqH-19" target="tvSFFlMFryi0nulxaoqH-20">
          <mxGeometry relative="1" as="geometry" />
        </mxCell>
        <mxCell id="tvSFFlMFryi0nulxaoqH-19" value="Match CRS" style="whiteSpace=wrap;html=1;fillColor=#ffe6cc;strokeColor=#d79b00;" vertex="1" parent="1">
          <mxGeometry x="120" y="500" width="120" height="60" as="geometry" />
        </mxCell>
        <mxCell id="tvSFFlMFryi0nulxaoqH-25" value="" style="edgeStyle=orthogonalEdgeStyle;rounded=0;orthogonalLoop=1;jettySize=auto;html=1;" edge="1" parent="1" source="tvSFFlMFryi0nulxaoqH-20" target="tvSFFlMFryi0nulxaoqH-24">
          <mxGeometry relative="1" as="geometry" />
        </mxCell>
        <mxCell id="tvSFFlMFryi0nulxaoqH-20" value="Extract stats (centroids, bounds)" style="whiteSpace=wrap;html=1;fillColor=#ffe6cc;strokeColor=#d79b00;" vertex="1" parent="1">
          <mxGeometry x="120" y="600" width="120" height="60" as="geometry" />
        </mxCell>
        <mxCell id="tvSFFlMFryi0nulxaoqH-27" value="" style="edgeStyle=orthogonalEdgeStyle;rounded=0;orthogonalLoop=1;jettySize=auto;html=1;" edge="1" parent="1" source="tvSFFlMFryi0nulxaoqH-24" target="tvSFFlMFryi0nulxaoqH-26">
          <mxGeometry relative="1" as="geometry" />
        </mxCell>
        <mxCell id="tvSFFlMFryi0nulxaoqH-24" value="Set up sampling distributions" style="whiteSpace=wrap;html=1;fillColor=#ffe6cc;strokeColor=#d79b00;" vertex="1" parent="1">
          <mxGeometry x="120" y="700" width="120" height="60" as="geometry" />
        </mxCell>
        <mxCell id="tvSFFlMFryi0nulxaoqH-26" value="Run simulations (sample storms)" style="whiteSpace=wrap;html=1;fillColor=#ffe6cc;strokeColor=#d79b00;" vertex="1" parent="1">
          <mxGeometry x="120" y="800" width="120" height="60" as="geometry" />
        </mxCell>
        <mxCell id="tvSFFlMFryi0nulxaoqH-32" value="" style="edgeStyle=orthogonalEdgeStyle;rounded=0;orthogonalLoop=1;jettySize=auto;html=1;" edge="1" parent="1" source="tvSFFlMFryi0nulxaoqH-29" target="tvSFFlMFryi0nulxaoqH-31">
          <mxGeometry relative="1" as="geometry" />
        </mxCell>
        <mxCell id="tvSFFlMFryi0nulxaoqH-29" value="For each sample: shift &amp;amp; overlay" style="whiteSpace=wrap;html=1;fillColor=#ffe6cc;strokeColor=#d79b00;" vertex="1" parent="1">
          <mxGeometry x="280" y="400" width="120" height="60" as="geometry" />
        </mxCell>
        <mxCell id="tvSFFlMFryi0nulxaoqH-34" value="" style="edgeStyle=orthogonalEdgeStyle;rounded=0;orthogonalLoop=1;jettySize=auto;html=1;" edge="1" parent="1" source="tvSFFlMFryi0nulxaoqH-31" target="tvSFFlMFryi0nulxaoqH-33">
          <mxGeometry relative="1" as="geometry" />
        </mxCell>
        <mxCell id="tvSFFlMFryi0nulxaoqH-31" value="Sum raster values in watershed" style="whiteSpace=wrap;html=1;fillColor=#ffe6cc;strokeColor=#d79b00;" vertex="1" parent="1">
          <mxGeometry x="280" y="500" width="120" height="60" as="geometry" />
        </mxCell>
        <mxCell id="tvSFFlMFryi0nulxaoqH-33" value="Store computed depths" style="whiteSpace=wrap;html=1;fillColor=#ffe6cc;strokeColor=#d79b00;" vertex="1" parent="1">
          <mxGeometry x="280" y="600" width="120" height="60" as="geometry" />
        </mxCell>
        <mxCell id="tvSFFlMFryi0nulxaoqH-39" value="" style="edgeStyle=orthogonalEdgeStyle;rounded=0;orthogonalLoop=1;jettySize=auto;html=1;" edge="1" parent="1" source="tvSFFlMFryi0nulxaoqH-35" target="tvSFFlMFryi0nulxaoqH-38">
          <mxGeometry relative="1" as="geometry" />
        </mxCell>
        <mxCell id="tvSFFlMFryi0nulxaoqH-35" value="Print simulation stats" style="whiteSpace=wrap;html=1;fillColor=#ffe6cc;strokeColor=#d79b00;" vertex="1" parent="1">
          <mxGeometry x="470" y="400" width="120" height="60" as="geometry" />
        </mxCell>
        <mxCell id="tvSFFlMFryi0nulxaoqH-41" value="" style="edgeStyle=orthogonalEdgeStyle;rounded=0;orthogonalLoop=1;jettySize=auto;html=1;exitX=0.5;exitY=1;exitDx=0;exitDy=0;" edge="1" parent="1" source="tvSFFlMFryi0nulxaoqH-38" target="tvSFFlMFryi0nulxaoqH-40">
          <mxGeometry relative="1" as="geometry" />
        </mxCell>
        <mxCell id="tvSFFlMFryi0nulxaoqH-38" value="Generate frequency curves" style="whiteSpace=wrap;html=1;fillColor=#ffe6cc;strokeColor=#d79b00;" vertex="1" parent="1">
          <mxGeometry x="470" y="500" width="120" height="60" as="geometry" />
        </mxCell>
        <mxCell id="tvSFFlMFryi0nulxaoqH-40" value="Create plots (frequency)" style="whiteSpace=wrap;html=1;fillColor=#ffe6cc;strokeColor=#d79b00;" vertex="1" parent="1">
          <mxGeometry x="540" y="630" width="130" height="60" as="geometry" />
        </mxCell>
        <mxCell id="tvSFFlMFryi0nulxaoqH-42" value="Create plots (distribution)" style="whiteSpace=wrap;html=1;fillColor=#ffe6cc;strokeColor=#d79b00;" vertex="1" parent="1">
          <mxGeometry x="410" y="630" width="120" height="60" as="geometry" />
        </mxCell>
        <mxCell id="tvSFFlMFryi0nulxaoqH-43" style="edgeStyle=orthogonalEdgeStyle;rounded=0;orthogonalLoop=1;jettySize=auto;html=1;exitX=0.5;exitY=1;exitDx=0;exitDy=0;entryX=0.583;entryY=0;entryDx=0;entryDy=0;entryPerimeter=0;" edge="1" parent="1" source="tvSFFlMFryi0nulxaoqH-38" target="tvSFFlMFryi0nulxaoqH-42">
          <mxGeometry relative="1" as="geometry" />
        </mxCell>
        <mxCell id="tvSFFlMFryi0nulxaoqH-46" value="Process" style="whiteSpace=wrap;html=1;fillColor=#dae8fc;strokeColor=#6c8ebf;" vertex="1" parent="1">
          <mxGeometry x="580" y="760" width="100" height="30" as="geometry" />
        </mxCell>
        <mxCell id="tvSFFlMFryi0nulxaoqH-47" value="Sub-process" style="whiteSpace=wrap;html=1;fillColor=#ffe6cc;strokeColor=#d79b00;" vertex="1" parent="1">
          <mxGeometry x="580" y="800" width="100" height="30" as="geometry" />
        </mxCell>
        <mxCell id="tvSFFlMFryi0nulxaoqH-48" value="&lt;b&gt;Legend&lt;/b&gt;" style="text;html=1;align=center;verticalAlign=middle;resizable=0;points=[];autosize=1;strokeColor=none;fillColor=none;" vertex="1" parent="1">
          <mxGeometry x="580" y="730" width="70" height="30" as="geometry" />
        </mxCell>
      </root>
    </mxGraphModel>
  </diagram>
</mxfile>
